<svg id="visual" viewBox="0 0 900 600" width="900" height="600" xmlns="http://www.w3.org/2000/svg" xmlns:xlink="http://www.w3.org/1999/xlink" version="1.1"><g stroke-width="1" stroke-linejoin="bevel"><path d="M419 339L383.7 324L384.7 370Z" fill="#15384f" stroke="#15384f"></path><path d="M384.7 370L396.7 378L419 339Z" fill="#00101c" stroke="#00101c"></path><path d="M383.7 324L341.4 342L384.7 370Z" fill="#00101c" stroke="#00101c"></path><path d="M330.4 462L416 402L396.7 378Z" fill="#081a28" stroke="#081a28"></path><path d="M330.4 462L396.7 378L384.7 370Z" fill="#277297" stroke="#277297"></path><path d="M396.7 378L416 402L419 339Z" fill="#0c2435" stroke="#0c2435"></path><path d="M383.7 324L320.4 324L341.4 342Z" fill="#15384f" stroke="#15384f"></path><path d="M416 402L468 382L419 339Z" fill="#297ea6" stroke="#297ea6"></path><path d="M320.4 324L301.1 332L341.4 342Z" fill="#0c2435" stroke="#0c2435"></path><path d="M341.4 342L297.1 382L384.7 370Z" fill="#081a28" stroke="#081a28"></path><path d="M301.1 332L297.1 382L341.4 342Z" fill="#277297" stroke="#277297"></path><path d="M535.6 320L418 243L419 339Z" fill="#0c2435" stroke="#0c2435"></path><path d="M419 339L418 243L383.7 324Z" fill="#1d4e6b" stroke="#1d4e6b"></path><path d="M383.7 324L340.7 231L320.4 324Z" fill="#112e42" stroke="#112e42"></path><path d="M320.4 324L241.1 272L301.1 332Z" fill="#081a28" stroke="#081a28"></path><path d="M416 402L492.3 400L468 382Z" fill="#205a7a" stroke="#205a7a"></path><path d="M468 382L520.3 363L419 339Z" fill="#246688" stroke="#246688"></path><path d="M492.3 400L520.3 363L468 382Z" fill="#0c2435" stroke="#0c2435"></path><path d="M418 243L340.7 231L383.7 324Z" fill="#277297" stroke="#277297"></path><path d="M297.1 382L330.4 462L384.7 370Z" fill="#00101c" stroke="#00101c"></path><path d="M416 402L488 499L492.3 400Z" fill="#19435d" stroke="#19435d"></path><path d="M340.7 231L319.4 237L320.4 324Z" fill="#081a28" stroke="#081a28"></path><path d="M520.3 363L535.6 320L419 339Z" fill="#0c2435" stroke="#0c2435"></path><path d="M418 243L344.7 206L340.7 231Z" fill="#246688" stroke="#246688"></path><path d="M340.7 231L342.4 204L319.4 237Z" fill="#081a28" stroke="#081a28"></path><path d="M520.3 363L542.3 316L535.6 320Z" fill="#205a7a" stroke="#205a7a"></path><path d="M535.6 320L540.3 243L418 243Z" fill="#1d4e6b" stroke="#1d4e6b"></path><path d="M423.7 146L342.4 204L344.7 206Z" fill="#246688" stroke="#246688"></path><path d="M344.7 206L342.4 204L340.7 231Z" fill="#081a28" stroke="#081a28"></path><path d="M330.4 462L351.7 494L416 402Z" fill="#1d4e6b" stroke="#1d4e6b"></path><path d="M351.7 494L417 509L416 402Z" fill="#1d4e6b" stroke="#1d4e6b"></path><path d="M492.3 400L552.6 417L520.3 363Z" fill="#15384f" stroke="#15384f"></path><path d="M330.4 462L327.4 497L351.7 494Z" fill="#0c2435" stroke="#0c2435"></path><path d="M351.7 494L352.7 523L417 509Z" fill="#19435d" stroke="#19435d"></path><path d="M288.1 505L327.4 497L330.4 462Z" fill="#081a28" stroke="#081a28"></path><path d="M291.1 149L241.1 272L319.4 237Z" fill="#00101c" stroke="#00101c"></path><path d="M319.4 237L241.1 272L320.4 324Z" fill="#277297" stroke="#277297"></path><path d="M301.1 332L188.9 317L297.1 382Z" fill="#0c2435" stroke="#0c2435"></path><path d="M297.1 382L288.1 505L330.4 462Z" fill="#19435d" stroke="#19435d"></path><path d="M488 499L552.6 417L492.3 400Z" fill="#19435d" stroke="#19435d"></path><path d="M520.3 363L552.6 417L542.3 316Z" fill="#19435d" stroke="#19435d"></path><path d="M417 509L488 499L416 402Z" fill="#15384f" stroke="#15384f"></path><path d="M544.6 196L540.3 243L613.6 171Z" fill="#0c2435" stroke="#0c2435"></path><path d="M542.3 316L540.3 243L535.6 320Z" fill="#277297" stroke="#277297"></path><path d="M418 243L423.7 146L344.7 206Z" fill="#00101c" stroke="#00101c"></path><path d="M327.4 497L352.7 523L351.7 494Z" fill="#246688" stroke="#246688"></path><path d="M561.6 528L545.3 504L517.3 580Z" fill="#19435d" stroke="#19435d"></path><path d="M256.1 140L225.1 273L241.1 272Z" fill="#00101c" stroke="#00101c"></path><path d="M241.1 272L188.9 317L301.1 332Z" fill="#15384f" stroke="#15384f"></path><path d="M540.3 243L485 181L418 243Z" fill="#205a7a" stroke="#205a7a"></path><path d="M169.9 450L288.1 505L297.1 382Z" fill="#19435d" stroke="#19435d"></path><path d="M327.4 497L322.4 564L352.7 523Z" fill="#081a28" stroke="#081a28"></path><path d="M485 181L423.7 146L418 243Z" fill="#00101c" stroke="#00101c"></path><path d="M342.4 204L291.1 149L319.4 237Z" fill="#0c2435" stroke="#0c2435"></path><path d="M544.6 196L492.3 163L485 181Z" fill="#205a7a" stroke="#205a7a"></path><path d="M485 181L492.3 163L423.7 146Z" fill="#0c2435" stroke="#0c2435"></path><path d="M225.1 273L188.9 317L241.1 272Z" fill="#205a7a" stroke="#205a7a"></path><path d="M540.3 243L544.6 196L485 181Z" fill="#297ea6" stroke="#297ea6"></path><path d="M618.6 311L540.3 243L542.3 316Z" fill="#205a7a" stroke="#205a7a"></path><path d="M545.3 504L488 499L517.3 580Z" fill="#19435d" stroke="#19435d"></path><path d="M488 499L545.3 504L552.6 417Z" fill="#0c2435" stroke="#0c2435"></path><path d="M188.9 317L174.9 369L297.1 382Z" fill="#277297" stroke="#277297"></path><path d="M423.7 146L291.1 149L342.4 204Z" fill="#00101c" stroke="#00101c"></path><path d="M145.6 329L147.6 348L188.9 317Z" fill="#112e42" stroke="#112e42"></path><path d="M625.9 407L542.3 316L552.6 417Z" fill="#297ea6" stroke="#297ea6"></path><path d="M625.9 407L618.6 311L542.3 316Z" fill="#205a7a" stroke="#205a7a"></path><path d="M288.1 505L322.4 564L327.4 497Z" fill="#246688" stroke="#246688"></path><path d="M352.7 523L431.7 600L417 509Z" fill="#1d4e6b" stroke="#1d4e6b"></path><path d="M231.1 549L322.4 564L288.1 505Z" fill="#246688" stroke="#246688"></path><path d="M147.6 348L160.9 374L174.9 369Z" fill="#112e42" stroke="#112e42"></path><path d="M174.9 369L169.9 450L297.1 382Z" fill="#205a7a" stroke="#205a7a"></path><path d="M545.3 504L613.6 440L552.6 417Z" fill="#205a7a" stroke="#205a7a"></path><path d="M613.6 440L625.9 407L552.6 417Z" fill="#277297" stroke="#277297"></path><path d="M482 600L488 499L417 509Z" fill="#1d4e6b" stroke="#1d4e6b"></path><path d="M545.3 504L561.6 528L613.6 440Z" fill="#00101c" stroke="#00101c"></path><path d="M188.9 317L147.6 348L174.9 369Z" fill="#1d4e6b" stroke="#1d4e6b"></path><path d="M145.6 329L188.9 317L164.9 243Z" fill="#081a28" stroke="#081a28"></path><path d="M166.6 445L174.9 369L160.9 374Z" fill="#081a28" stroke="#081a28"></path><path d="M166.6 445L169.9 450L174.9 369Z" fill="#205a7a" stroke="#205a7a"></path><path d="M63.3 381L166.6 445L160.9 374Z" fill="#19435d" stroke="#19435d"></path><path d="M281.4 83L256.1 140L291.1 149Z" fill="#112e42" stroke="#112e42"></path><path d="M291.1 149L256.1 140L241.1 272Z" fill="#0c2435" stroke="#0c2435"></path><path d="M164.9 243L188.9 317L225.1 273Z" fill="#1d4e6b" stroke="#1d4e6b"></path><path d="M492.3 163L443 100L423.7 146Z" fill="#081a28" stroke="#081a28"></path><path d="M423.7 146L398.7 77L291.1 149Z" fill="#1d4e6b" stroke="#1d4e6b"></path><path d="M532.3 98L443 100L492.3 163Z" fill="#0c2435" stroke="#0c2435"></path><path d="M256.1 140L164.9 243L225.1 273Z" fill="#205a7a" stroke="#205a7a"></path><path d="M322.4 564L431.7 600L352.7 523Z" fill="#15384f" stroke="#15384f"></path><path d="M625.9 407L647.9 305L618.6 311Z" fill="#0c2435" stroke="#0c2435"></path><path d="M618.6 311L613.6 171L540.3 243Z" fill="#297ea6" stroke="#297ea6"></path><path d="M167.9 522L231.1 549L169.9 450Z" fill="#081a28" stroke="#081a28"></path><path d="M169.9 450L231.1 549L288.1 505Z" fill="#0c2435" stroke="#0c2435"></path><path d="M322.4 564L274.4 600L431.7 600Z" fill="#0c2435" stroke="#0c2435"></path><path d="M482 600L517.3 580L488 499Z" fill="#246688" stroke="#246688"></path><path d="M613.6 171L554.3 137L544.6 196Z" fill="#297ea6" stroke="#297ea6"></path><path d="M544.6 196L554.3 137L492.3 163Z" fill="#081a28" stroke="#081a28"></path><path d="M431.7 600L482 600L417 509Z" fill="#297ea6" stroke="#297ea6"></path><path d="M485 35L398.7 77L443 100Z" fill="#297ea6" stroke="#297ea6"></path><path d="M443 100L398.7 77L423.7 146Z" fill="#246688" stroke="#246688"></path><path d="M231.1 549L274.4 600L322.4 564Z" fill="#205a7a" stroke="#205a7a"></path><path d="M647.9 305L613.6 171L618.6 311Z" fill="#297ea6" stroke="#297ea6"></path><path d="M559.6 99L532.3 98L554.3 137Z" fill="#1d4e6b" stroke="#1d4e6b"></path><path d="M554.3 137L532.3 98L492.3 163Z" fill="#0c2435" stroke="#0c2435"></path><path d="M662.9 453L674.9 405L625.9 407Z" fill="#1d4e6b" stroke="#1d4e6b"></path><path d="M625.9 407L674.9 405L647.9 305Z" fill="#112e42" stroke="#112e42"></path><path d="M689.1 157L613.9 160L613.6 171Z" fill="#112e42" stroke="#112e42"></path><path d="M662.9 453L625.9 407L613.6 440Z" fill="#00101c" stroke="#00101c"></path><path d="M662.9 453L613.6 440L666.9 493Z" fill="#0c2435" stroke="#0c2435"></path><path d="M98.6 522L167.9 522L169.9 450Z" fill="#0c2435" stroke="#0c2435"></path><path d="M231.1 549L257.1 600L274.4 600Z" fill="#0c2435" stroke="#0c2435"></path><path d="M98.6 522L169.9 450L166.6 445Z" fill="#205a7a" stroke="#205a7a"></path><path d="M398.7 77L281.4 83L291.1 149Z" fill="#0c2435" stroke="#0c2435"></path><path d="M256.1 140L164.9 144L164.9 243Z" fill="#00101c" stroke="#00101c"></path><path d="M482 600L530.3 600L517.3 580Z" fill="#277297" stroke="#277297"></path><path d="M517.3 580L530.3 600L561.6 528Z" fill="#19435d" stroke="#19435d"></path><path d="M688.9 284L613.6 171L647.9 305Z" fill="#0c2435" stroke="#0c2435"></path><path d="M613.6 171L613.9 160L554.3 137Z" fill="#1d4e6b" stroke="#1d4e6b"></path><path d="M185.9 600L257.1 600L231.1 549Z" fill="#1d4e6b" stroke="#1d4e6b"></path><path d="M666.9 493L613.6 440L561.6 528Z" fill="#246688" stroke="#246688"></path><path d="M613.9 160L559.6 99L554.3 137Z" fill="#277297" stroke="#277297"></path><path d="M532.3 98L485 35L443 100Z" fill="#19435d" stroke="#19435d"></path><path d="M710.1 317L688.9 284L647.9 305Z" fill="#15384f" stroke="#15384f"></path><path d="M187.9 77L164.9 144L256.1 140Z" fill="#1d4e6b" stroke="#1d4e6b"></path><path d="M164.9 243L98.6 233L145.6 329Z" fill="#15384f" stroke="#15384f"></path><path d="M662.9 453L686.1 470L674.9 405Z" fill="#081a28" stroke="#081a28"></path><path d="M721.1 340L710.1 317L647.9 305Z" fill="#205a7a" stroke="#205a7a"></path><path d="M630.9 600L666.9 493L561.6 528Z" fill="#081a28" stroke="#081a28"></path><path d="M666.9 493L686.1 470L662.9 453Z" fill="#0c2435" stroke="#0c2435"></path><path d="M721.1 340L647.9 305L674.9 405Z" fill="#277297" stroke="#277297"></path><path d="M688.9 284L710.1 208L613.6 171Z" fill="#1d4e6b" stroke="#1d4e6b"></path><path d="M117.6 165L98.6 233L164.9 243Z" fill="#081a28" stroke="#081a28"></path><path d="M145.6 329L63.3 381L147.6 348Z" fill="#00101c" stroke="#00101c"></path><path d="M147.6 348L63.3 381L160.9 374Z" fill="#277297" stroke="#277297"></path><path d="M686.1 470L711.1 397L674.9 405Z" fill="#1d4e6b" stroke="#1d4e6b"></path><path d="M546.6 40L485 35L532.3 98Z" fill="#297ea6" stroke="#297ea6"></path><path d="M398.7 77L291.4 27L281.4 83Z" fill="#277297" stroke="#277297"></path><path d="M530.3 600L599.6 600L561.6 528Z" fill="#0c2435" stroke="#0c2435"></path><path d="M666.9 493L723.1 504L686.1 470Z" fill="#1d4e6b" stroke="#1d4e6b"></path><path d="M711.1 397L721.1 340L674.9 405Z" fill="#112e42" stroke="#112e42"></path><path d="M147.6 600L185.9 600L167.9 522Z" fill="#297ea6" stroke="#297ea6"></path><path d="M167.9 522L185.9 600L231.1 549Z" fill="#0c2435" stroke="#0c2435"></path><path d="M124.6 149L117.6 165L164.9 144Z" fill="#15384f" stroke="#15384f"></path><path d="M164.9 144L117.6 165L164.9 243Z" fill="#00101c" stroke="#00101c"></path><path d="M39.3 343L63.3 381L145.6 329Z" fill="#15384f" stroke="#15384f"></path><path d="M102.3 104L124.6 149L164.9 144Z" fill="#15384f" stroke="#15384f"></path><path d="M361.4 0L291.4 27L398.7 77Z" fill="#297ea6" stroke="#297ea6"></path><path d="M281.4 83L187.9 77L256.1 140Z" fill="#112e42" stroke="#112e42"></path><path d="M220.1 47L187.9 77L281.4 83Z" fill="#19435d" stroke="#19435d"></path><path d="M583.6 0L546.6 40L607.9 0Z" fill="#246688" stroke="#246688"></path><path d="M559.6 99L546.6 40L532.3 98Z" fill="#081a28" stroke="#081a28"></path><path d="M677.9 99L559.6 99L613.9 160Z" fill="#19435d" stroke="#19435d"></path><path d="M47.3 434L98.6 522L166.6 445Z" fill="#19435d" stroke="#19435d"></path><path d="M750.4 267L688.9 284L710.1 317Z" fill="#15384f" stroke="#15384f"></path><path d="M750.4 267L710.1 208L688.9 284Z" fill="#00101c" stroke="#00101c"></path><path d="M711.1 397L739.4 344L721.1 340Z" fill="#205a7a" stroke="#205a7a"></path><path d="M721.1 340L739.4 344L710.1 317Z" fill="#1d4e6b" stroke="#1d4e6b"></path><path d="M769.4 444L739.4 344L711.1 397Z" fill="#081a28" stroke="#081a28"></path><path d="M599.6 600L630.9 600L561.6 528Z" fill="#277297" stroke="#277297"></path><path d="M427 0L398.7 77L485 35Z" fill="#15384f" stroke="#15384f"></path><path d="M427 0L386.7 0L398.7 77Z" fill="#205a7a" stroke="#205a7a"></path><path d="M196.9 32L220.1 47L212.1 0Z" fill="#205a7a" stroke="#205a7a"></path><path d="M291.4 27L220.1 47L281.4 83Z" fill="#15384f" stroke="#15384f"></path><path d="M517.3 0L427 0L485 35Z" fill="#277297" stroke="#277297"></path><path d="M386.7 0L361.4 0L398.7 77Z" fill="#277297" stroke="#277297"></path><path d="M710.1 208L689.1 157L613.6 171Z" fill="#112e42" stroke="#112e42"></path><path d="M46.3 586L103.6 547L98.6 522Z" fill="#112e42" stroke="#112e42"></path><path d="M98.6 522L103.6 547L167.9 522Z" fill="#0c2435" stroke="#0c2435"></path><path d="M103.6 547L147.6 600L167.9 522Z" fill="#1d4e6b" stroke="#1d4e6b"></path><path d="M19.3 244L39.3 343L98.6 233Z" fill="#297ea6" stroke="#297ea6"></path><path d="M98.6 233L39.3 343L145.6 329Z" fill="#15384f" stroke="#15384f"></path><path d="M63.3 381L47.3 434L166.6 445Z" fill="#112e42" stroke="#112e42"></path><path d="M66.3 200L98.6 233L117.6 165Z" fill="#205a7a" stroke="#205a7a"></path><path d="M0 381L47.3 434L63.3 381Z" fill="#246688" stroke="#246688"></path><path d="M102.3 104L117.6 165L124.6 149Z" fill="#277297" stroke="#277297"></path><path d="M102.3 104L66.3 200L117.6 165Z" fill="#19435d" stroke="#19435d"></path><path d="M727.4 577L723.1 504L666.9 493Z" fill="#00101c" stroke="#00101c"></path><path d="M686.1 470L769.4 444L711.1 397Z" fill="#246688" stroke="#246688"></path><path d="M759.4 296L750.4 267L710.1 317Z" fill="#19435d" stroke="#19435d"></path><path d="M756.4 146L677.9 99L689.1 157Z" fill="#081a28" stroke="#081a28"></path><path d="M759.4 296L710.1 317L739.4 344Z" fill="#1d4e6b" stroke="#1d4e6b"></path><path d="M583.6 0L517.3 0L546.6 40Z" fill="#0c2435" stroke="#0c2435"></path><path d="M546.6 40L517.3 0L485 35Z" fill="#00101c" stroke="#00101c"></path><path d="M802.7 338L759.4 296L739.4 344Z" fill="#277297" stroke="#277297"></path><path d="M220.1 47L196.9 32L187.9 77Z" fill="#205a7a" stroke="#205a7a"></path><path d="M187.9 77L102.3 104L164.9 144Z" fill="#081a28" stroke="#081a28"></path><path d="M212.1 0L220.1 47L291.4 27Z" fill="#277297" stroke="#277297"></path><path d="M689.1 157L677.9 99L613.9 160Z" fill="#081a28" stroke="#081a28"></path><path d="M756.4 146L689.1 157L710.1 208Z" fill="#1d4e6b" stroke="#1d4e6b"></path><path d="M815.7 204L750.1 221L750.4 267Z" fill="#205a7a" stroke="#205a7a"></path><path d="M750.4 267L750.1 221L710.1 208Z" fill="#277297" stroke="#277297"></path><path d="M99.6 41L102.3 104L187.9 77Z" fill="#246688" stroke="#246688"></path><path d="M630.9 600L679.1 600L666.9 493Z" fill="#205a7a" stroke="#205a7a"></path><path d="M750.4 503L769.4 444L723.1 504Z" fill="#246688" stroke="#246688"></path><path d="M723.1 504L769.4 444L686.1 470Z" fill="#205a7a" stroke="#205a7a"></path><path d="M727.4 577L750.4 503L723.1 504Z" fill="#0c2435" stroke="#0c2435"></path><path d="M66.3 200L19.3 244L98.6 233Z" fill="#246688" stroke="#246688"></path><path d="M39.3 343L0 381L63.3 381Z" fill="#0c2435" stroke="#0c2435"></path><path d="M0 150L19.3 244L66.3 200Z" fill="#0c2435" stroke="#0c2435"></path><path d="M361.4 0L212.1 0L291.4 27Z" fill="#246688" stroke="#246688"></path><path d="M196.9 32L167.6 0L187.9 77Z" fill="#19435d" stroke="#19435d"></path><path d="M607.9 0L546.6 40L559.6 99Z" fill="#246688" stroke="#246688"></path><path d="M0 260L0 323L39.3 343Z" fill="#246688" stroke="#246688"></path><path d="M0 323L0 381L39.3 343Z" fill="#1d4e6b" stroke="#1d4e6b"></path><path d="M47.3 434L25.3 496L98.6 522Z" fill="#00101c" stroke="#00101c"></path><path d="M0 435L25.3 496L47.3 434Z" fill="#205a7a" stroke="#205a7a"></path><path d="M103.6 547L85.3 600L147.6 600Z" fill="#081a28" stroke="#081a28"></path><path d="M46.3 586L85.3 600L103.6 547Z" fill="#15384f" stroke="#15384f"></path><path d="M19.3 244L0 260L39.3 343Z" fill="#246688" stroke="#246688"></path><path d="M0 150L0 260L19.3 244Z" fill="#1d4e6b" stroke="#1d4e6b"></path><path d="M679.1 600L727.4 577L666.9 493Z" fill="#00101c" stroke="#00101c"></path><path d="M874.7 428L811.7 341L769.4 444Z" fill="#081a28" stroke="#081a28"></path><path d="M0 381L0 435L47.3 434Z" fill="#112e42" stroke="#112e42"></path><path d="M677.9 99L607.9 0L559.6 99Z" fill="#00101c" stroke="#00101c"></path><path d="M769.4 444L802.7 338L739.4 344Z" fill="#277297" stroke="#277297"></path><path d="M759.4 296L815.7 204L750.4 267Z" fill="#277297" stroke="#277297"></path><path d="M815.7 204L756.4 146L750.1 221Z" fill="#297ea6" stroke="#297ea6"></path><path d="M750.1 221L756.4 146L710.1 208Z" fill="#19435d" stroke="#19435d"></path><path d="M677.9 99L667.9 15L607.9 0Z" fill="#205a7a" stroke="#205a7a"></path><path d="M212.1 0L167.9 0L196.9 32Z" fill="#112e42" stroke="#112e42"></path><path d="M102.3 104L0 150L66.3 200Z" fill="#205a7a" stroke="#205a7a"></path><path d="M167.9 0L167.6 0L196.9 32Z" fill="#00101c" stroke="#00101c"></path><path d="M769.4 444L811.7 341L802.7 338Z" fill="#00101c" stroke="#00101c"></path><path d="M877.7 282L815.7 204L759.4 296Z" fill="#205a7a" stroke="#205a7a"></path><path d="M839.7 467L769.4 444L750.4 503Z" fill="#246688" stroke="#246688"></path><path d="M25.3 496L46.3 586L98.6 522Z" fill="#277297" stroke="#277297"></path><path d="M0 558L46.3 586L25.3 496Z" fill="#15384f" stroke="#15384f"></path><path d="M167.6 0L99.6 41L187.9 77Z" fill="#1d4e6b" stroke="#1d4e6b"></path><path d="M0 435L0 506L25.3 496Z" fill="#112e42" stroke="#112e42"></path><path d="M679.1 600L737.4 600L727.4 577Z" fill="#19435d" stroke="#19435d"></path><path d="M820.7 600L840.7 505L750.4 503Z" fill="#081a28" stroke="#081a28"></path><path d="M735.1 73L667.9 15L677.9 99Z" fill="#246688" stroke="#246688"></path><path d="M756.4 146L735.1 73L677.9 99Z" fill="#277297" stroke="#277297"></path><path d="M0 75L0 150L102.3 104Z" fill="#15384f" stroke="#15384f"></path><path d="M877.7 282L759.4 296L802.7 338Z" fill="#15384f" stroke="#15384f"></path><path d="M756.4 146L813.7 75L735.1 73Z" fill="#00101c" stroke="#00101c"></path><path d="M0 506L0 558L25.3 496Z" fill="#19435d" stroke="#19435d"></path><path d="M840.7 505L839.7 467L750.4 503Z" fill="#297ea6" stroke="#297ea6"></path><path d="M811.7 341L877.7 282L802.7 338Z" fill="#277297" stroke="#277297"></path><path d="M870.7 155L811.4 147L815.7 204Z" fill="#19435d" stroke="#19435d"></path><path d="M815.7 204L811.4 147L756.4 146Z" fill="#0c2435" stroke="#0c2435"></path><path d="M167.6 0L87.3 0L99.6 41Z" fill="#205a7a" stroke="#205a7a"></path><path d="M99.6 41L43.3 43L102.3 104Z" fill="#277297" stroke="#277297"></path><path d="M87.3 0L43.3 43L99.6 41Z" fill="#1d4e6b" stroke="#1d4e6b"></path><path d="M0 558L0 600L46.3 586Z" fill="#112e42" stroke="#112e42"></path><path d="M46.3 586L0 600L85.3 600Z" fill="#205a7a" stroke="#205a7a"></path><path d="M820.7 600L750.4 503L727.4 577Z" fill="#1d4e6b" stroke="#1d4e6b"></path><path d="M0 60L0 75L43.3 43Z" fill="#112e42" stroke="#112e42"></path><path d="M43.3 43L0 75L102.3 104Z" fill="#15384f" stroke="#15384f"></path><path d="M735.1 73L753.4 28L667.9 15Z" fill="#19435d" stroke="#19435d"></path><path d="M667.9 15L749.4 0L607.9 0Z" fill="#15384f" stroke="#15384f"></path><path d="M813.7 75L753.4 28L735.1 73Z" fill="#00101c" stroke="#00101c"></path><path d="M900 443L874.7 428L839.7 467Z" fill="#112e42" stroke="#112e42"></path><path d="M839.7 467L874.7 428L769.4 444Z" fill="#205a7a" stroke="#205a7a"></path><path d="M900 317L877.7 282L811.7 341Z" fill="#112e42" stroke="#112e42"></path><path d="M752.1 0L749.4 0L753.4 28Z" fill="#246688" stroke="#246688"></path><path d="M0 0L0 60L43.3 43Z" fill="#1d4e6b" stroke="#1d4e6b"></path><path d="M737.4 600L820.7 600L727.4 577Z" fill="#277297" stroke="#277297"></path><path d="M900 502L900 443L839.7 467Z" fill="#0c2435" stroke="#0c2435"></path><path d="M752.1 0L753.4 28L857.7 0Z" fill="#19435d" stroke="#19435d"></path><path d="M753.4 28L749.4 0L667.9 15Z" fill="#246688" stroke="#246688"></path><path d="M813.7 75L756.4 146L811.4 147Z" fill="#112e42" stroke="#112e42"></path><path d="M870.7 155L813.7 75L811.4 147Z" fill="#00101c" stroke="#00101c"></path><path d="M874.7 428L900 317L811.7 341Z" fill="#205a7a" stroke="#205a7a"></path><path d="M900 232L870.7 155L815.7 204Z" fill="#19435d" stroke="#19435d"></path><path d="M900 317L900 283L877.7 282Z" fill="#1d4e6b" stroke="#1d4e6b"></path><path d="M900 232L815.7 204L877.7 282Z" fill="#15384f" stroke="#15384f"></path><path d="M900 502L839.7 467L840.7 505Z" fill="#1d4e6b" stroke="#1d4e6b"></path><path d="M874.7 428L900 443L900 317Z" fill="#205a7a" stroke="#205a7a"></path><path d="M900 283L900 232L877.7 282Z" fill="#205a7a" stroke="#205a7a"></path><path d="M87.3 0L0 0L43.3 43Z" fill="#00101c" stroke="#00101c"></path><path d="M900 518L900 502L840.7 505Z" fill="#205a7a" stroke="#205a7a"></path><path d="M820.7 600L900 518L840.7 505Z" fill="#205a7a" stroke="#205a7a"></path><path d="M900 232L900 133L870.7 155Z" fill="#246688" stroke="#246688"></path><path d="M870.7 155L900 97L813.7 75Z" fill="#112e42" stroke="#112e42"></path><path d="M813.7 75L857.7 0L753.4 28Z" fill="#081a28" stroke="#081a28"></path><path d="M900 133L900 97L870.7 155Z" fill="#246688" stroke="#246688"></path><path d="M820.7 600L900 600L900 518Z" fill="#277297" stroke="#277297"></path><path d="M900 97L900 80L813.7 75Z" fill="#1d4e6b" stroke="#1d4e6b"></path><path d="M900 80L857.7 0L813.7 75Z" fill="#15384f" stroke="#15384f"></path><path d="M900 80L900 0L857.7 0Z" fill="#205a7a" stroke="#205a7a"></path></g></svg>